<svg width="833" height="116" viewBox="0 0 833 116" fill="none" xmlns="http://www.w3.org/2000/svg">
<path d="M27.8629 85.5997L55.7258 113.6H139.313C139.313 113.6 139.313 85.5997 111.451 85.5997H27.8629Z" fill="#EEEEEE"/>
<path d="M27.8629 85.5997V1.59998C27.8629 1.59998 0 1.59998 0 29.6002V57.6005L27.8629 85.6007V85.5997Z" fill="#EEEEEE"/>
<path d="M27.8629 85.5997H0C0 85.5997 0 113.6 9.2873 113.6H18.5746L27.8619 85.5997H27.8629Z" fill="#EEEEEE"/>
<path d="M27.8629 85.5997L28.7565 84.9267L139.313 1.59998H83.5887L27.8629 85.5997Z" fill="#EEEEEE"/>
<path d="M181.233 113.6L199.473 1.59997H223.313L241.553 113.6H223.953L220.753 91.36V91.68H200.753L197.553 113.6H181.233ZM202.833 76.48H218.673L210.833 21.12H210.513L202.833 76.48ZM272.503 115.2C255.223 115.2 246.583 104.96 246.583 87.04V80.64H263.223V88.32C263.223 96.32 266.743 99.2 272.343 99.2C277.943 99.2 281.463 96.32 281.463 88C281.463 78.72 277.943 72.8 266.423 62.72C251.703 49.76 246.903 40.64 246.903 27.84C246.903 10.24 256.023 -3.05176e-05 273.143 -3.05176e-05C290.263 -3.05176e-05 298.743 10.24 298.743 28.16V32.8H282.103V27.04C282.103 19.04 278.903 16 273.303 16C267.703 16 264.503 19.04 264.503 26.72C264.503 34.88 268.183 40.8 279.703 50.88C294.423 63.84 299.063 72.8 299.063 86.72C299.063 104.96 289.783 115.2 272.503 115.2ZM309.155 113.6V1.59997H335.075C352.675 1.59997 361.315 11.36 361.315 29.28V40.32C361.315 58.24 352.675 68 335.075 68H326.755V113.6H309.155ZM326.755 52H335.075C340.675 52 343.715 49.44 343.715 41.44V28.16C343.715 20.16 340.675 17.6 335.075 17.6H326.755V52ZM370.873 113.6V1.59997H418.873V17.6H388.473V47.2H412.633V63.2H388.473V97.6H418.873V113.6H370.873ZM453.798 115.2C436.838 115.2 427.878 104.96 427.878 87.68V27.52C427.878 10.24 436.838 -3.05176e-05 453.798 -3.05176e-05C470.758 -3.05176e-05 479.718 10.24 479.718 27.52V39.36H463.078V26.4C463.078 19.04 459.558 16 454.278 16C448.998 16 445.478 19.04 445.478 26.4V88.96C445.478 96.32 448.998 99.2 454.278 99.2C459.558 99.2 463.078 96.32 463.078 88.96V71.84H479.718V87.68C479.718 104.96 470.758 115.2 453.798 115.2ZM504.008 113.6V17.6H485.608V1.59997H540.008V17.6H521.608V113.6H504.008ZM548.53 113.6V1.59997H595.09V17.6H566.13V48.8H588.85V64.8H566.13V113.6H548.53ZM603.53 113.6V1.59997H621.13V97.6H650.09V113.6H603.53ZM683.345 115.2C666.065 115.2 656.625 104.96 656.625 87.04V28.16C656.625 10.24 666.065 -3.05176e-05 683.345 -3.05176e-05C700.625 -3.05176e-05 710.065 10.24 710.065 28.16V87.04C710.065 104.96 700.625 115.2 683.345 115.2ZM683.345 99.2C688.945 99.2 692.465 96.16 692.465 88.16V27.04C692.465 19.04 688.945 16 683.345 16C677.745 16 674.225 19.04 674.225 27.04V88.16C674.225 96.16 677.745 99.2 683.345 99.2ZM729.167 113.6L717.807 1.59997H734.767L742.607 87.68H742.927L751.247 1.59997H770.447L778.767 87.68H779.087L786.927 1.59997H802.127L790.767 113.6H768.847L760.847 38.08H760.527L752.527 113.6H729.167Z" fill="#EEEEEE"/>
<path d="M815.853 15.6V3.59998H813.553V1.59997H820.353V3.59998H818.053V15.6H815.853ZM821.419 15.6V1.59997H824.559L825.959 11.62H825.999L827.399 1.59997H830.539V15.6H828.459V4.99997H828.419L826.819 15.6H824.979L823.379 4.99997H823.339V15.6H821.419Z" fill="white"/>
</svg>
